<?xml version="1.0" encoding="UTF-8"?>
<svg width="490px" height="490px" viewBox="0 0 490 490" version="1.1" xmlns="http://www.w3.org/2000/svg" xmlns:xlink="http://www.w3.org/1999/xlink">
    <!-- Generator: Sketch 52.6 (67491) - http://www.bohemiancoding.com/sketch -->
    <title>Shape</title>
    <desc>Created with Sketch.</desc>
    <g id="Page-1" stroke="none" stroke-width="1" fill="none" fill-rule="evenodd">
        <g id="logo" fill="#FFFFFF" fill-rule="nonzero">
            <path d="M483.6,415.5 L342.3,171.5 C341.8,170.6 341.5,169.8 341.5,169 L341.1,40.9 L348.7,40.9 C360,40.9 369.1,31.8 369.1,20.5 C369.1,9.2 360,0.1 348.7,0.1 L141.3,0.1 C130,0.1 120.9,9.2 120.9,20.5 C120.9,31.8 130,40.9 141.3,40.9 L148.9,40.9 L148.5,169 C148.5,169.8 148.2,170.7 147.7,171.5 L6.4,415.5 C-2.1,430.1 -2.1,446.9 6.3,461.5 C16.4,479.1 37,490 59.9,490 L430,490 C453,490 473.5,479.1 483.6,461.5 C492.1,446.9 492.1,430.1 483.6,415.5 Z M430.1,449.2 L59.9,449.2 C50.5,449.2 38,442.7 41.7,436 L183,192 C186.9,185.3 189.1,177.7 189.3,170.2 L189.7,41 L300.2,41 L300.6,170.2 C300.8,177.8 303,185.3 306.9,192 L448.2,436 C451.7,442.4 439.5,449.2 430.1,449.2 Z" id="Shape"></path>
        </g>
    </g>
</svg>